<svg width="501" height="500" viewBox="0 0 501 500" fill="none" xmlns="http://www.w3.org/2000/svg">
<path fill-rule="evenodd" clip-rule="evenodd" d="M250.109 487.5C381.277 487.5 487.609 381.168 487.609 250C487.609 118.832 381.277 12.5 250.109 12.5C118.942 12.5 12.6094 118.832 12.6094 250C12.6094 381.168 118.942 487.5 250.109 487.5ZM250.109 500C388.181 500 500.109 388.071 500.109 250C500.109 111.929 388.181 0 250.109 0C112.038 0 0.109375 111.929 0.109375 250C0.109375 388.071 112.038 500 250.109 500Z" fill="white"/>
<path d="M140.609 219.45V114.45H151.109V208.95H199.334V219.45H140.609Z" fill="white"/>
<path d="M256.449 221.4C249.349 221.4 242.674 220 236.424 217.2C230.174 214.35 224.674 210.425 219.924 205.425C215.174 200.425 211.449 194.65 208.749 188.1C206.049 181.5 204.699 174.45 204.699 166.95C204.699 159.45 206.049 152.425 208.749 145.875C211.449 139.275 215.174 133.475 219.924 128.475C224.674 123.475 230.174 119.575 236.424 116.775C242.674 113.925 249.349 112.5 256.449 112.5C263.599 112.5 270.299 113.925 276.549 116.775C282.799 119.575 288.299 123.475 293.049 128.475C297.799 133.475 301.499 139.275 304.149 145.875C306.849 152.425 308.199 159.45 308.199 166.95C308.199 174.45 306.849 181.5 304.149 188.1C301.499 194.65 297.799 200.425 293.049 205.425C288.299 210.425 282.799 214.35 276.549 217.2C270.299 220 263.599 221.4 256.449 221.4ZM256.449 210.9C262.199 210.9 267.549 209.75 272.499 207.45C277.499 205.1 281.874 201.9 285.624 197.85C289.424 193.8 292.374 189.125 294.474 183.825C296.624 178.525 297.699 172.9 297.699 166.95C297.699 160.95 296.624 155.3 294.474 150C292.324 144.65 289.349 139.975 285.549 135.975C281.799 131.925 277.424 128.75 272.424 126.45C267.474 124.15 262.149 123 256.449 123C250.699 123 245.324 124.175 240.324 126.525C235.374 128.825 230.999 132 227.199 136.05C223.449 140.1 220.499 144.775 218.349 150.075C216.249 155.375 215.199 161 215.199 166.95C215.199 173 216.274 178.675 218.424 183.975C220.574 189.275 223.524 193.95 227.274 198C231.074 202.05 235.449 205.225 240.399 207.525C245.399 209.775 250.749 210.9 256.449 210.9Z" fill="white"/>
<path d="M189.284 396.4C182.084 396.4 175.334 395 169.034 392.2C162.784 389.35 157.309 385.425 152.609 380.425C147.909 375.375 144.234 369.575 141.584 363.025C138.934 356.425 137.609 349.375 137.609 341.875C137.609 334.225 138.984 327.1 141.734 320.5C144.484 313.9 148.259 308.15 153.059 303.25C157.859 298.3 163.359 294.45 169.559 291.7C175.809 288.95 182.434 287.575 189.434 287.575C197.484 287.575 205.084 289.45 212.234 293.2C219.434 296.95 225.534 302.275 230.534 309.175L221.159 314.275C217.159 309.025 212.334 305 206.684 302.2C201.084 299.4 195.309 298 189.359 298C183.709 298 178.384 299.15 173.384 301.45C168.434 303.7 164.059 306.85 160.259 310.9C156.459 314.95 153.484 319.625 151.334 324.925C149.184 330.225 148.109 335.925 148.109 342.025C148.109 348.075 149.184 353.75 151.334 359.05C153.484 364.35 156.434 369.025 160.184 373.075C163.984 377.075 168.384 380.225 173.384 382.525C178.384 384.775 183.734 385.9 189.434 385.9C194.134 385.9 198.584 385.1 202.784 383.5C207.034 381.85 210.909 379.55 214.409 376.6C217.909 373.65 220.859 370.2 223.259 366.25C225.709 362.3 227.484 358 228.584 353.35H200.234V343.825H240.809C240.659 351.075 239.209 357.875 236.459 364.225C233.709 370.575 229.959 376.175 225.209 381.025C220.509 385.825 215.084 389.6 208.934 392.35C202.834 395.05 196.284 396.4 189.284 396.4Z" fill="white"/>
<path d="M303.91 396.4C296.81 396.4 290.135 395 283.885 392.2C277.635 389.35 272.135 385.425 267.385 380.425C262.635 375.425 258.91 369.65 256.21 363.1C253.51 356.5 252.16 349.45 252.16 341.95C252.16 334.45 253.51 327.425 256.21 320.875C258.91 314.275 262.635 308.475 267.385 303.475C272.135 298.475 277.635 294.575 283.885 291.775C290.135 288.925 296.81 287.5 303.91 287.5C311.06 287.5 317.76 288.925 324.01 291.775C330.26 294.575 335.76 298.475 340.51 303.475C345.26 308.475 348.96 314.275 351.61 320.875C354.31 327.425 355.66 334.45 355.66 341.95C355.66 349.45 354.31 356.5 351.61 363.1C348.96 369.65 345.26 375.425 340.51 380.425C335.76 385.425 330.26 389.35 324.01 392.2C317.76 395 311.06 396.4 303.91 396.4ZM303.91 385.9C309.66 385.9 315.01 384.75 319.96 382.45C324.96 380.1 329.335 376.9 333.085 372.85C336.885 368.8 339.835 364.125 341.935 358.825C344.085 353.525 345.16 347.9 345.16 341.95C345.16 335.95 344.085 330.3 341.935 325C339.785 319.65 336.81 314.975 333.01 310.975C329.26 306.925 324.885 303.75 319.885 301.45C314.935 299.15 309.61 298 303.91 298C298.16 298 292.785 299.175 287.785 301.525C282.835 303.825 278.46 307 274.66 311.05C270.91 315.1 267.96 319.775 265.81 325.075C263.71 330.375 262.66 336 262.66 341.95C262.66 348 263.735 353.675 265.885 358.975C268.035 364.275 270.985 368.95 274.735 373C278.535 377.05 282.91 380.225 287.86 382.525C292.86 384.775 298.21 385.9 303.91 385.9Z" fill="white"/>
</svg>
